<?xml version="1.0" encoding="UTF-8" standalone="no"?>
<svg
   width="32"
   height="32"
   viewBox="0 0 24 24"
   fill="none"
   stroke="currentColor"
   stroke-width="1"
   stroke-linecap="round"
   stroke-linejoin="round"
   version="1.1"
   id="svg1"
   xmlns="http://www.w3.org/2000/svg"
   xmlns:svg="http://www.w3.org/2000/svg">
  <defs
     id="defs1" />
  <g
     id="layer3">
    <path
       d="m 21,15 a 2,2 0 0 1 -2,2 H 7 L 3,21 V 5 A 2,2 0 0 1 5,3 h 14 a 2,2 0 0 1 2,2 z"
       id="path1"
       style="fill:none;fill-opacity:0.15;stroke:#e0e9fb;stroke-width:1.25025;stroke-linejoin:round;stroke-dasharray:none;stroke-opacity:1" />
    <path
       d="M 6.1122391,9.3879643 V 8.8017968 H 7.8707416 V 9.3879643 Z M 7.8707416,8.8017968 V 7.0432943 H 6.6984066 V 6.4571267 h 1.7585025 v 2.3446701 z m -2.3446701,0 V 5.8709592 H 6.1122391 V 8.8017968 Z M 6.1122391,5.8709592 V 5.2847917 h 2.34467 V 5.8709592 Z M 9.629244,9.3879643 V 8.8017968 h 1.758503 V 9.3879643 Z M 9.0430765,8.8017968 V 7.0432943 H 9.629244 v 1.7585025 z m 2.3446705,0 V 7.0432943 h 0.586167 V 8.8017968 Z M 9.629244,7.0432943 V 6.4571267 h 1.758503 v 0.5861676 z m 3.517005,2.34467 V 8.8017968 h 1.758503 V 9.3879643 Z M 12.560081,8.8017968 V 7.0432943 h 0.586168 v 1.7585025 z m 2.344671,0 V 7.0432943 h 0.586167 V 8.8017968 Z M 13.146249,7.0432943 V 6.4571267 h 1.758503 v 0.5861676 z m 2.930837,1.7585025 V 7.0432943 h 0.586168 V 8.8017968 Z M 16.663254,7.0432943 V 6.4571267 h 1.172335 v 0.5861676 z m 0,2.34467 V 8.8017968 h 1.758503 V 7.6294618 H 17.835589 V 7.0432943 h 0.586168 V 5.2847917 h 0.586167 v 4.1031726 z"
       id="text1"
       style="font-size:4.68934px;line-height:0;font-family:Minecraftia;-inkscape-font-specification:'Minecraftia, Normal';fill:#e0e9fb;stroke:#e0e9fb;stroke-width:0.304746"
       transform="scale(0.978234,1.0222503)"
       aria-label="Good" />
    <path
       d="m 6.1087448,14.524454 v -0.586167 h 1.7585025 v 0.586167 z m 1.7585025,-0.586167 v -1.758503 h -1.172335 v -0.586167 h 1.7585026 v 2.34467 z m -2.34467,0 v -2.930838 h 0.5861675 v 2.930838 z m 0.5861675,-2.930838 v -0.586167 h 2.3446701 v 0.586167 z m 2.9308375,2.930838 v -0.586168 h 0.5861675 v 0.586168 z m 0.5861675,0.586167 V 13.938287 H 11.384252 V 13.352119 H 9.6257498 v -0.586167 h 1.7585022 v -0.586168 h 0.586168 v 2.34467 z m 0,-2.34467 v -0.586167 h 1.7585022 v 0.586167 z m 4.1031722,1.172335 v -1.172335 h 0.586168 v 1.172335 z m 1.172335,1.172335 v -2.34467 h 0.586168 v 2.34467 z m -2.34467,0 v -2.930837 h 1.172335 v 0.586167 h -0.586167 v 2.34467 z m 1.758503,-2.34467 v -0.586167 h 0.586167 v 0.586167 z m 2.34467,2.34467 v -0.586167 h 2.34467 v 0.586167 z m -0.586168,-0.586167 v -1.758503 h 0.586168 v 0.586168 h 1.758502 v -0.586168 h 0.586168 v 1.172335 h -2.34467 v 0.586168 z m 0.586168,-1.758503 v -0.586167 h 1.758502 v 0.586167 z"
       id="text1-0"
       style="font-size:4.68934px;line-height:0;font-family:Minecraftia;-inkscape-font-specification:'Minecraftia, Normal';fill:#e0e9fb;stroke:#e0e9fb;stroke-width:0.304746"
       transform="scale(0.978234,1.0222503)"
       aria-label="Game&#10;" />
  </g>
</svg>
