<?xml version="1.0" encoding="UTF-8" standalone="no"?>
<!-- Created with Inkscape (http://www.inkscape.org/) -->

<svg
   width="128"
   height="128"
   viewBox="0 0 128 128"
   version="1.1"
   id="svg1"
   xmlns="http://www.w3.org/2000/svg"
   xmlns:svg="http://www.w3.org/2000/svg">
  <defs
     id="defs1" />
  <g
     id="layer1">
    <path
       style="fill:#1a2229;fill-opacity:0;stroke:#e0e9fb;stroke-width:0.999092;stroke-linecap:butt;stroke-linejoin:round;stroke-dasharray:none;stroke-opacity:1;paint-order:normal"
       id="rect6"
       width="18.234169"
       height="8.234169"
       x="12.382915"
       y="4.3829155"
       d="m 13.382915,4.3829155 h 16.234169 a 1,1 45 0 1 1,1 l 0,6.2341695 a 1,1 135 0 1 -1,1 H 13.382915 a 1,1 45 0 1 -1,-1 l 0,-6.2341695 a 1,1 135 0 1 1,-1 z"
       transform="matrix(6.2391916,0,0,6.2391916,-69.142616,2.6541504)" />
    <path
       style="fill:#e0e9fb;stroke:#e0e9fb;stroke-width:6.23925;stroke-linecap:round;stroke-linejoin:round"
       d="M 43.119625,83.119625 V 113.73261 L 55.306753,83.119625 Z"
       id="path1" />
    <path
       d="m 38.449924,53.970964 v -2.563988 h 7.691963 v 2.563988 z m 7.691963,-2.563988 v -7.691962 h -5.127975 v -2.563988 h 7.691962 v 10.25595 z m -10.25595,0 V 38.587039 h 2.563987 v 12.819937 z m 2.563987,-12.819937 v -2.563988 h 10.25595 v 2.563988 z m 15.383925,15.383925 v -2.563988 h 7.691962 v 2.563988 z m -2.563988,-2.563988 v -7.691962 h 2.563988 v 7.691962 z m 10.25595,0 v -7.691962 h 2.563988 v 7.691962 z m -7.691962,-7.691962 v -2.563988 h 7.691962 v 2.563988 z m 15.383924,10.25595 v -2.563988 h 7.691963 v 2.563988 z m -2.563987,-2.563988 v -7.691962 h 2.563987 v 7.691962 z m 10.25595,0 v -7.691962 h 2.563987 v 7.691962 z m -7.691963,-7.691962 v -2.563988 h 7.691963 v 2.563988 z m 12.819935,7.691962 v -7.691962 h 2.563988 v 7.691962 z m 2.563988,-7.691962 v -2.563988 h 5.127975 v 2.563988 z m 0,10.25595 v -2.563988 h 7.691962 v -5.127975 h -2.563987 v -2.563987 h 2.563987 v -7.691963 h 2.563988 v 17.947913 z"
       id="text2"
       style="font-size:20.5119px;line-height:0;font-family:Minecraftia;-inkscape-font-specification:'Minecraftia, Normal';fill:#e0e9fb;stroke:#e0e9fb;stroke-width:1.282;stroke-linecap:round;stroke-linejoin:round"
       transform="scale(0.99317461,1.0068723)"
       aria-label="Good" />
    <path
       d="m 38.449924,75.178476 v -2.563988 h 7.691963 v 2.563988 z m 7.691963,-2.563988 v -7.691962 h -5.127975 v -2.563988 h 7.691962 v 10.25595 z m -10.25595,0 V 59.794551 h 2.563987 v 12.819937 z m 2.563987,-12.819937 v -2.563988 h 10.25595 v 2.563988 z m 12.819937,12.819937 v -2.563987 h 2.563988 v 2.563987 z m 2.563988,2.563988 v -2.563988 h 7.691962 v -2.563987 h -7.691962 v -2.563988 h 7.691962 v -2.563987 h 2.563988 v 10.25595 z m 0,-10.25595 v -2.563988 h 7.691962 v 2.563988 z m 17.947912,5.127975 v -5.127975 h 2.563987 v 5.127975 z m 5.127975,5.127975 v -10.25595 h 2.563987 v 10.25595 z m -10.25595,0 V 62.358538 h 5.127975 v 2.563988 h -2.563988 v 10.25595 z m 7.691962,-10.25595 v -2.563988 h 2.563988 v 2.563988 z m 10.255948,10.25595 v -2.563988 h 10.25595 v 2.563988 z m -2.563988,-2.563988 v -7.691962 h 2.563988 v 2.563987 h 7.691962 v -2.563987 h 2.563988 v 5.127975 h -10.25595 v 2.563987 z m 2.563988,-7.691962 v -2.563988 h 7.691962 v 2.563988 z"
       id="text2-6"
       style="font-size:20.5119px;line-height:0;font-family:Minecraftia;-inkscape-font-specification:'Minecraftia, Normal';fill:#e0e9fb;stroke:#e0e9fb;stroke-width:1.282;stroke-linecap:round;stroke-linejoin:round"
       transform="scale(0.99317461,1.0068723)"
       aria-label="Game" />
  </g>
</svg>
